<?xml version="1.0" standalone="no"?>
<!DOCTYPE svg PUBLIC "-//W3C//DTD SVG 20010904//EN"
 "http://www.w3.org/TR/2001/REC-SVG-20010904/DTD/svg10.dtd">
<svg version="1.0" xmlns="http://www.w3.org/2000/svg"
 width="653.000000pt" height="653.000000pt" viewBox="0 0 653.000000 653.000000"
 preserveAspectRatio="xMidYMid meet">
<metadata>
Created by potrace 1.11, written by Peter Selinger 2001-2013
</metadata>
<g transform="translate(0.000000,653.000000) scale(0.100000,-0.100000)"
fill="#000000" stroke="none">
<path d="M2340 5855 c-377 -63 -702 -283 -984 -663 l-61 -83 -3 326 -2 325
-500 0 -500 0 0 -2475 0 -2475 540 0 540 0 0 1193 c1 1549 11 1866 72 2147 53
249 155 431 305 551 137 109 275 159 435 159 215 0 363 -85 442 -254 105 -222
116 -446 116 -2378 l0 -1418 540 0 540 0 0 1308 c0 1460 5 1607 61 1932 48
280 125 461 257 602 132 142 282 208 472 208 156 0 259 -39 350 -131 97 -98
149 -243 187 -519 15 -112 17 -292 20 -1762 l4 -1638 540 0 540 0 -4 1818 c-4
1966 -1 1875 -57 2166 -96 498 -392 867 -806 1005 -134 45 -234 62 -389 68
-230 9 -397 -24 -591 -116 -229 -109 -441 -293 -632 -546 -41 -55 -77 -101
-81 -102 -3 -2 -21 28 -39 67 -115 239 -335 471 -550 579 -205 103 -520 147
-762 106z"/>
</g>
</svg>
